<svg width="13" height="14" viewBox="0 0 13 14" fill="none" xmlns="http://www.w3.org/2000/svg">
<g clip-path="url(#clip0_801_1395)">
<path fill-rule="evenodd" clip-rule="evenodd" d="M1.74836 0.888672C2.30074 0.888672 2.7526 1.34064 2.7526 1.89302V4.14713C2.45366 3.99786 2.1164 3.91373 1.75952 3.91373C1.39377 3.91373 1.04859 4.00194 0.744107 4.15819V1.89302C0.744107 1.34064 1.19597 0.888672 1.74836 0.888672ZM10.4338 4.44388C11.371 4.44388 12.1308 5.20357 12.1308 6.1408C12.1308 7.07804 11.371 7.83783 10.4338 7.83783C9.49655 7.83783 8.73686 7.07814 8.73686 6.1408C8.73697 5.20357 9.49665 4.44388 10.4338 4.44388ZM10.4227 0.888672C10.9751 0.888672 11.427 1.34064 11.427 1.89302V4.14713C11.128 3.99786 10.7908 3.91373 10.4338 3.91373C10.068 3.91373 9.72285 4.00194 9.41837 4.15819V1.89302C9.41847 1.34064 9.87033 0.888672 10.4227 0.888672ZM11.427 8.13448V12.7107C11.427 13.263 10.9751 13.715 10.4227 13.715C9.87033 13.715 9.41847 13.263 9.41847 12.7107V8.12352C9.72295 8.27967 10.0681 8.36787 10.4339 8.36787C10.7908 8.36777 11.128 8.28374 11.427 8.13448ZM6.07661 10.6896C7.01385 10.6896 7.77353 9.92993 7.77353 8.9927C7.77353 8.05546 7.01385 7.29567 6.07661 7.29567C5.13938 7.29567 4.37969 8.05536 4.37969 8.9927C4.37969 9.92983 5.13938 10.6896 6.07661 10.6896ZM6.06544 13.715C6.61783 13.715 7.0698 13.2629 7.0698 12.7107V10.9812C6.77085 11.1304 6.43798 11.2145 6.07661 11.2145C5.71525 11.2145 5.36567 11.1262 5.06119 10.97V12.7106C5.0613 13.263 5.51316 13.715 6.06544 13.715ZM7.0698 6.9938V1.89302C7.0698 1.34075 6.61783 0.888672 6.06544 0.888672C5.51306 0.888672 5.06119 1.34064 5.06119 1.89302V7.00497C5.36567 6.84871 5.71525 6.76041 6.07661 6.76041C6.43798 6.76041 6.77085 6.84464 7.0698 6.9938ZM1.75942 4.44388C2.69666 4.44388 3.45634 5.20357 3.45634 6.1408C3.45634 7.07804 2.69666 7.83783 1.75942 7.83783C0.822288 7.83772 0.0625 7.07804 0.0625 6.1407C0.0625 5.20357 0.822288 4.44388 1.75942 4.44388ZM2.7525 8.13448V12.7107C2.7525 13.263 2.30063 13.715 1.74825 13.715C1.19587 13.715 0.744003 13.263 0.744003 12.7107V8.12352C1.04848 8.27967 1.39367 8.36787 1.75942 8.36787C2.1164 8.36777 2.45355 8.28374 2.7525 8.13448Z" fill="black"/>
</g>
<defs>
<clipPath id="clip0_801_1395">
<rect width="12.0683" height="12.8263" fill="white" transform="translate(0.0625 0.888794)"/>
</clipPath>
</defs>
</svg>
