<svg width="120" height="120" viewBox="0 0 120 120" fill="none" xmlns="http://www.w3.org/2000/svg">
<g clip-path="url(#clip0_276_839)">
<path d="M27.3983 0.351562C26.3436 0.9375 26.2264 1.64062 26.2967 6.77344L26.3671 11.5312L27.0233 12.0938C27.4686 12.4688 27.9608 12.6562 28.5936 12.6562C29.2264 12.6562 29.7186 12.4688 30.1639 12.0938L30.8202 11.5312L30.8905 6.77344C30.9608 1.57031 30.8436 0.914062 29.7421 0.351562C28.9217 -0.09375 28.1952 -0.0703125 27.3983 0.351562Z" fill="white"/>
<path d="M90.2578 0.328115C89.1797 0.93749 89.0859 1.42968 89.0625 6.51561V11.2969L89.7422 11.9766C90.6562 12.8672 92.0156 12.9141 92.9766 12.0937L93.6328 11.5312L93.7031 6.77343C93.7734 1.5703 93.6562 0.914053 92.5547 0.351553C91.7578 -0.070322 91.0078 -0.070322 90.2578 0.328115Z" fill="white"/>
<path d="M4.85156 4.87515C4.35938 5.39077 4.21875 5.76577 4.21875 6.56265C4.21875 7.57046 4.21875 7.57046 10.0078 13.383C13.1719 16.5939 16.1484 19.383 16.5938 19.5939C17.2969 19.922 17.5078 19.922 18.2578 19.6408C19.2891 19.2658 20.0156 17.9767 19.7812 16.9455C19.6875 16.5001 17.6719 14.3205 13.6172 10.2423L7.59375 4.2189H6.53906C5.67188 4.2189 5.36719 4.33609 4.85156 4.87515Z" fill="white"/>
<path d="M106.617 10.008C103.406 13.1721 100.617 16.1486 100.406 16.5939C99.867 17.7424 100.336 18.9377 101.554 19.5236C103.054 20.2736 103.406 20.0158 109.875 13.5236L115.781 7.5705V6.56269C115.781 5.08612 114.914 4.21894 113.461 4.21894H112.429L106.617 10.008Z" fill="white"/>
<path d="M71.5541 12.9844C69.9135 13.5235 69.1635 14.1329 64.5932 18.7266L60.1401 23.1797L57.3745 20.4844C55.8041 18.9844 54.0463 17.5313 53.3666 17.1563C52.2651 16.5938 51.9135 16.5235 49.8041 16.5235C47.7182 16.5235 47.3198 16.5938 46.2885 17.1329C43.9448 18.3985 42.2807 20.6719 41.976 23.086L41.8354 24.2579L40.6635 24.3985C37.4291 24.7969 34.4291 27.7735 34.0541 30.961C33.9135 32.0625 33.8901 32.1094 33.0698 32.25C30.1166 32.7188 28.101 34.1485 26.7885 36.6797C25.9448 38.2969 25.7807 41.086 26.4135 42.7969L26.8823 43.9922L25.6166 44.6485C23.062 45.9844 21.562 48.5391 21.562 51.5625C21.562 54.2344 22.1713 55.4766 24.7963 58.1954L27.0463 60.4922L13.7573 73.7813C6.09321 81.4688 0.374463 87.3516 0.233838 87.75C-0.44585 89.6016 1.3354 91.3829 3.16353 90.7032C3.56196 90.5625 7.68696 86.625 12.8901 81.4454L21.9135 72.4219L30.2338 80.7422L38.5541 89.0625L25.2885 102.375C17.976 109.688 11.8354 115.922 11.6245 116.25C11.062 117.094 11.1557 118.195 11.8588 119.039C12.3745 119.648 12.6323 119.766 13.5463 119.766H14.6479L33.6323 100.805C44.062 90.375 52.851 81.7266 53.1323 81.586C53.601 81.3516 54.0229 81.5625 56.8823 83.461C60.8198 86.0625 61.7573 86.5547 64.3823 87.3282C66.0932 87.8204 66.937 87.9375 69.2573 87.9375H72.0698L88.0073 103.852C98.7651 114.586 104.156 119.789 104.601 119.883C106.359 120.328 107.906 118.781 107.46 117.023C107.367 116.578 104.156 113.203 97.9682 106.992L88.6166 97.6172L89.9995 96.1641C91.2416 94.8985 91.4057 94.6172 91.4057 93.7969C91.4057 92.2266 89.8354 91.125 88.3823 91.6875C88.0307 91.8047 87.2104 92.4375 86.5307 93.1172L85.312 94.3125L82.7338 91.7579L80.1557 89.1797L89.6948 79.6407C94.9682 74.3672 99.3745 70.0782 99.4917 70.0782C99.6323 70.0782 100.828 71.1797 102.187 72.5391L104.624 75L103.429 76.2188C101.484 78.2344 101.249 79.1719 102.398 80.4375C102.96 81.0704 103.242 81.211 104.039 81.211C104.882 81.211 105.14 81.0469 106.359 79.8516C107.109 79.125 107.812 78.5157 107.929 78.5157C108.046 78.5157 110.085 80.4375 112.429 82.7813C116.601 86.9532 116.742 87.0704 117.679 87.0704C119.343 87.0704 120.468 85.2891 119.742 83.836C119.601 83.5547 115.546 79.3594 110.742 74.5313L101.999 65.7422L101.835 63.75C101.648 61.3594 100.828 58.0782 99.8901 55.8282L99.2104 54.1875L101.648 51.75C104.812 48.6094 105.585 47.1797 105.585 44.4141C105.562 42.8907 105.468 42.2813 104.953 41.2266C103.851 38.8125 101.273 36.8907 98.7885 36.6094C97.7807 36.5157 97.7807 36.4922 97.6167 35.4141C97.1245 31.9922 94.1479 29.0157 90.8198 28.6407C89.8354 28.5469 89.812 28.5235 89.6713 27.4454C89.226 24.0704 86.3198 21.1641 82.9448 20.7188L81.8432 20.5782L81.7026 19.4766C81.351 16.9219 79.5463 14.5079 77.1557 13.4063C75.5854 12.6797 73.0541 12.4922 71.5541 12.9844ZM75.4213 17.8125C76.9213 18.7266 77.5073 20.5782 76.7807 21.9844C76.5932 22.336 75.2104 23.836 73.7104 25.3125C69.9604 29.0157 69.6088 29.8125 71.1088 31.3125C72.6088 32.8125 73.4057 32.461 77.1088 28.711C80.0151 25.7579 80.6479 25.3125 81.8432 25.3125C83.3666 25.3125 85.0776 26.9532 85.0776 28.4063C85.0776 29.6719 84.4916 30.4454 80.2729 34.6875C75.9604 39 75.4448 39.7032 75.6557 40.9454C75.7963 41.8594 76.8276 42.6563 77.8823 42.6563C78.8198 42.6563 78.9838 42.5157 83.3198 38.2032C85.7807 35.7657 88.101 33.6563 88.4526 33.5157C90.9135 32.5782 93.4213 34.6407 92.9291 37.2188C92.7885 37.9454 92.0151 38.836 88.2651 42.6563C85.476 45.4688 83.6713 47.461 83.5776 47.8594C83.2495 49.2422 84.3745 50.625 85.8745 50.625C86.7651 50.625 86.976 50.461 91.2651 46.1954C93.726 43.7344 96.0463 41.625 96.3979 41.5079C99.1401 40.4532 101.906 43.1954 100.687 45.75C100.101 46.9922 78.8198 68.0391 76.476 69.6797C72.7963 72.2813 68.1088 74.2969 63.7495 75.1407C62.7885 75.3516 60.3745 75.586 58.4057 75.7266C54.8432 75.9375 52.687 76.4063 51.351 77.2735C50.812 77.625 50.7182 77.5547 43.9916 70.8282L37.1948 64.0313L38.1323 63.5625C40.1713 62.5079 41.6948 60.375 42.2104 57.8438L42.4682 56.5547L43.5932 56.4141C44.8823 56.25 46.687 55.4063 47.6245 54.5157C49.1479 53.0625 49.8979 51.6094 50.2495 49.4297C50.3901 48.6094 50.437 48.586 51.5385 48.4454C54.7495 48.0704 57.7026 45.0938 58.101 41.836L58.2416 40.6641L59.4135 40.5235C61.8276 40.2188 64.101 38.5547 65.3666 36.211C65.9057 35.1797 65.976 34.7813 65.976 32.6954C65.976 30.1407 65.6245 29.1329 64.1948 27.4688C63.8198 27.0469 63.5151 26.625 63.5151 26.5313C63.5151 26.2032 72.0932 17.836 72.6557 17.6016C73.5932 17.2266 74.601 17.3204 75.4213 17.8125ZM56.3901 26.2735L61.4057 31.3125V32.6485C61.4057 33.8438 61.312 34.0782 60.6323 34.8282C60.187 35.3204 59.5541 35.7422 59.062 35.836C57.2807 36.211 56.9526 35.9766 51.6323 30.6563L46.6401 25.6407V24.2813C46.6401 22.9922 46.687 22.8516 47.5776 21.9844C48.4916 21.0469 48.5385 21.0469 49.9448 21.1407L51.3745 21.2344L56.3901 26.2735ZM48.351 34.1719C53.5541 39.3985 53.7885 39.7032 53.4135 41.4844C53.2963 41.9766 52.8979 42.6094 52.4057 43.0547C51.726 43.6875 51.3745 43.8282 50.5073 43.8282C49.9213 43.8282 49.1479 43.6875 48.7963 43.5C47.7182 42.9141 38.9526 33.9375 38.7651 33.211C38.3198 31.3594 39.3745 29.4375 41.0385 29.086C42.7729 28.711 43.1479 28.9688 48.351 34.1719ZM35.7416 37.5C36.1401 37.7344 38.4135 39.9141 40.8041 42.3516C45.5385 47.1094 45.9604 47.7422 45.4682 49.4297C44.9291 51.3282 42.6323 52.3829 40.9448 51.5391C40.2182 51.1641 31.4526 42.4219 31.0307 41.6719C30.6088 40.875 30.6088 39.5391 31.0307 38.7188C31.9682 36.8907 33.9135 36.3985 35.7416 37.5ZM30.8901 48.7266C32.2026 49.4063 37.1479 54.5391 37.476 55.5938C37.9682 57.1172 37.2651 58.6875 35.6948 59.5079C35.0385 59.836 33.6323 59.836 32.976 59.5079C32.2495 59.1329 26.976 53.9063 26.5776 53.1563C26.1323 52.3125 26.1557 50.7422 26.6479 49.9219C27.1166 49.125 28.476 48.3047 29.3666 48.2813C29.7182 48.2813 30.3979 48.4922 30.8901 48.7266ZM96.3042 59.5782C96.562 60.4922 96.9135 62.2032 97.0776 63.3516L97.3588 65.4141L87.1166 75.6563L76.8979 85.875L75.5151 84.5625C74.7416 83.8125 73.851 83.1563 73.5229 83.086C73.1713 82.9922 72.1166 83.0157 71.1557 83.1563C67.9916 83.5782 65.0385 82.9688 62.1557 81.3282C60.8432 80.5547 60.7495 80.1563 61.9213 80.1563C64.0073 80.1563 69.4682 78.6563 72.7729 77.1797C78.0463 74.7891 80.8823 72.5625 89.062 64.3594C92.601 60.7969 95.5776 57.8907 95.6479 57.8907C95.7182 57.8907 96.0229 58.6407 96.3042 59.5782ZM38.8588 72.2579L47.1088 80.5079L44.5307 83.086L41.9526 85.6641L33.6323 77.3438L25.312 69.0235L27.8198 66.5157C29.2026 65.1094 30.3979 63.9844 30.4682 63.9844C30.5385 63.9844 34.312 67.711 38.8588 72.2579Z" fill="white"/>
<path d="M1.19504 26.5782C0.0934745 27.1875 -0.281525 28.5469 0.351287 29.7422C0.913787 30.8438 1.57004 30.961 6.77316 30.8907L11.531 30.8203L12.0935 30.1641C12.9138 29.2032 12.8669 27.8438 11.9763 26.9297L11.2966 26.25H6.51535C3.02316 26.2735 1.61691 26.3438 1.19504 26.5782Z" fill="white"/>
<path d="M108.023 26.9297C107.132 27.8438 107.085 29.2032 107.906 30.1641L108.468 30.8203L113.226 30.8907C118.429 30.961 119.085 30.8438 119.648 29.7422C120.07 28.9453 120.093 28.336 119.718 27.5391C119.203 26.3672 118.57 26.25 113.437 26.25H108.703L108.023 26.9297Z" fill="white"/>
<path d="M95.0387 84.7031C94.2419 85.5 94.0778 86.3672 94.5465 87.3515C94.9919 88.2656 96.1169 88.8515 97.1012 88.664C98.0153 88.4765 98.9059 87.3281 98.9059 86.3203C98.9059 84.4453 96.3512 83.3906 95.0387 84.7031Z" fill="white"/>
</g>
<defs>
<clipPath id="clip0_276_839">
<rect width="120" height="120" fill="white"/>
</clipPath>
</defs>
</svg>
