<svg width="18" height="18" viewBox="0 0 18 18" fill="none" xmlns="http://www.w3.org/2000/svg">
<g clip-path="url(#clip0_241_2)">
<path d="M10.1748 1.42608C10.1951 1.44497 10.214 1.46387 10.2329 1.48422C11.1502 2.42113 11.6613 3.68175 11.6556 4.99293C11.6499 6.3041 11.1278 7.56022 10.2024 8.4891L10.1936 8.49928L14.5355 12.847L16.2246 14.5361L17.2596 15.571L15.5705 17.2586L14.5355 16.2251L12.8988 17.8619L11.2097 16.1728L12.8465 14.5361L11.954 13.6436L10.0643 15.5332L8.37956 13.8398L10.2692 11.9501L8.49876 10.1884L8.48858 10.1971C7.55563 11.13 6.29027 11.6542 4.97088 11.6542C3.65148 11.6542 2.38613 11.13 1.45317 10.1971C0.520221 9.26412 -0.00390625 7.99877 -0.00390625 6.67937C-0.00390625 5.35998 0.520221 4.09462 1.45317 3.16167L3.16115 1.4537C4.0906 0.525681 5.34886 0.00215892 6.66227 -0.00301307C7.97568 -0.00818506 9.23802 0.505412 10.1748 1.42608ZM8.91158 4.9714C8.91261 4.67822 8.85575 4.38773 8.74425 4.11658C8.63275 3.84543 8.4688 3.59897 8.26182 3.39134C7.84119 2.97414 7.27275 2.74004 6.68031 2.74004C6.08787 2.74004 5.51942 2.97414 5.09879 3.39134L3.38936 5.09786C2.98428 5.52023 2.76084 6.08451 2.76695 6.6697C2.77306 7.25489 3.00824 7.81438 3.42205 8.2282C3.83587 8.64201 4.39536 8.87719 4.98055 8.8833C5.56574 8.88941 6.13002 8.66597 6.55239 8.26089L8.26037 6.55291C8.46759 6.34508 8.63178 6.09841 8.74352 5.82703C8.85527 5.55565 8.91238 5.26488 8.91158 4.9714Z" fill="white"/>
</g>
<defs>
<clipPath id="clip0_241_2">
<rect width="17.26" height="17.8618" fill="white"/>
</clipPath>
</defs>
</svg>
