<svg width="21" height="22" viewBox="0 0 21 22" fill="none" xmlns="http://www.w3.org/2000/svg">
<g clip-path="url(#clip0_801_1467)">
<path d="M8.54294 0.66272H8.54568V0.663916C10.9039 0.6646 13.0393 1.62113 14.5846 3.16674C16.1273 4.71014 17.083 6.84365 17.0845 9.20002H17.0857V9.20566V9.2125H17.0845C17.0837 10.1622 16.9278 11.0762 16.6412 11.9284C16.5932 12.0715 16.5429 12.2089 16.4913 12.3401V12.3413C16.2442 12.9668 15.9248 13.5581 15.5433 14.1028L20.5134 18.5699L20.5165 18.5727L20.5434 18.5976L20.5452 18.5995C20.8259 18.8666 20.9786 19.2243 20.9979 19.5873C21.0167 19.9462 20.9052 20.3133 20.6597 20.6078L20.6579 20.6105L20.628 20.6452L20.622 20.6512L20.597 20.6785L20.5943 20.6821C20.3268 20.9627 19.9698 21.1152 19.6065 21.1343C19.2481 21.1533 18.8807 21.042 18.586 20.7963L18.5835 20.7944L18.5486 20.7645L18.5437 20.7604L13.4602 16.1915C13.3099 16.2975 13.1564 16.3982 13.001 16.4932C12.7903 16.6222 12.5721 16.7437 12.3494 16.8546C11.2045 17.4258 9.91082 17.7471 8.54311 17.7471V17.7483H8.54038V17.7471C6.18213 17.7464 4.0464 16.7899 2.50112 15.2442C0.957894 13.7008 0.0027344 11.567 0.0011963 9.2113H0V9.20566V9.20293H0.0011963C0.0018799 6.84468 0.958406 4.70894 2.50402 3.16367C4.04742 1.62113 6.18093 0.665454 8.5373 0.663916V0.66272H8.54294ZM8.54568 2.57851V2.5797H8.54294H8.5373V2.57851C6.71107 2.5797 5.05573 3.32192 3.85738 4.51976C2.6592 5.7176 1.9163 7.37464 1.91579 9.2031H1.91698V9.20583V9.21147H1.91579C1.91698 11.0377 2.65869 12.6922 3.85704 13.8909C5.05488 15.0892 6.71192 15.8321 8.54021 15.8325V15.8313H8.54294H8.54858V15.8325C10.3748 15.8313 12.0295 15.0894 13.2282 13.8912C14.4263 12.6934 15.1692 11.0369 15.1696 9.20857H15.1686V9.20583V9.20019H15.1696C15.1686 7.37396 14.4262 5.71862 13.2285 4.52027C12.0307 3.32192 10.3741 2.57902 8.54568 2.57851Z" fill="#080808"/>
</g>
<defs>
<clipPath id="clip0_801_1467">
<rect width="21" height="20.4736" fill="white" transform="translate(0 0.66272)"/>
</clipPath>
</defs>
</svg>
