<svg width="61" height="66" viewBox="0 0 61 66" fill="none" xmlns="http://www.w3.org/2000/svg">
<path d="M35.866 0.608459C37.8894 1.1207 39.6438 2.33726 40.8091 4.04045C41.5519 5.12896 41.872 6.03818 42.0385 7.52367C42.1153 8.16397 42.2818 8.97075 42.4227 9.32931C42.7428 10.1489 43.5752 11.5063 44.2155 12.2747C45.1247 13.3632 45.3296 14.2852 44.8686 15.2841C44.446 16.1933 43.5624 16.7568 42.5507 16.7568H42.0385V19.0106C42.0385 21.7511 41.9488 22.0969 41.078 22.9677C40.2457 23.8129 39.8103 23.9281 37.6332 23.9281H35.8916V25.5929V27.2448L37.1338 27.629C37.8253 27.8339 40.8091 28.7303 43.7545 29.6139C46.7127 30.5104 49.4147 31.3684 49.7733 31.5348C50.6953 31.9574 51.9247 32.9179 52.5522 33.699C53.5382 34.9284 53.9993 36.1322 54.7036 39.2953C55.2798 41.9333 59.4546 64.5358 59.4546 65.0736C59.4546 65.2017 59.3137 65.445 59.1344 65.6115L58.8271 65.9316H53.3077H47.7884L47.5066 65.6371C47.2761 65.4066 47.0968 64.7151 46.5334 61.8593C46.1492 59.9385 45.8034 58.4145 45.7522 58.4658C45.701 58.517 45.0735 60.0665 44.3436 61.8978C43.6136 63.729 43.0117 65.2401 42.9989 65.2529C42.9605 65.3041 41.347 64.6382 41.2317 64.5358C41.1677 64.4718 42.0257 62.1923 43.1142 59.4518L45.1119 54.4703V49.4504V44.4176H46.1364H47.1609V49.4376L47.1481 54.4703L48.0829 59.1701L49.0177 63.8827H53.0772C55.5616 63.8827 57.1495 63.8315 57.1495 63.7674C57.1495 63.2808 53.1669 41.8436 52.6674 39.6282C51.9759 36.5292 51.6686 35.7864 50.7337 34.7619C49.6196 33.5454 49.2995 33.4173 41.4878 31.0866C35.93 29.4219 34.2397 28.8712 34.0604 28.6535C33.8683 28.4102 33.8427 28.0516 33.8427 25.4392V22.5066L34.1628 22.1993C34.4702 21.8792 34.4958 21.8792 36.9161 21.8792C39.3364 21.8792 39.362 21.8792 39.6694 21.559C39.8487 21.3925 39.9895 21.162 39.9895 21.0468C39.9895 20.8803 39.5797 20.8547 36.6856 20.8547C32.5621 20.8547 32.895 20.6498 32.8438 23.1726L32.7926 24.9526H31.7809H30.7692V23.3518C30.7692 22.481 30.8333 21.4694 30.9101 21.1236C31.0766 20.304 31.6401 19.5357 32.3316 19.1643C32.8566 18.8826 33.0231 18.8698 36.4295 18.8313L39.9895 18.7929V17.0641C39.9895 15.3993 40.0023 15.3225 40.3097 15.028C40.5914 14.7334 40.7195 14.7078 41.6927 14.7078C42.9349 14.7078 43.2038 14.5541 42.9477 13.9907L42.8068 13.6705L37.582 13.709C32.7926 13.7474 32.3188 13.773 31.7937 13.9907C30.4619 14.5669 29.5655 15.553 29.0789 17.0001C28.7843 17.8453 28.7843 17.8837 28.7587 27.5778C28.7331 32.9307 28.6947 37.4384 28.6563 37.5921C28.605 37.7841 28.1312 38.1939 27.2732 38.7702C26.4921 39.2953 25.8902 39.7819 25.8005 39.9868C25.3139 41.0753 26.0695 42.3687 27.2092 42.3687C27.7086 42.3687 28.2849 41.9077 28.6563 41.229C29.2838 40.0892 30.2058 40.0892 30.8333 41.229C31.2047 41.9077 31.7809 42.3687 32.2803 42.3687C33.4201 42.3687 34.1756 41.0753 33.689 39.9868C33.5994 39.7819 33.0103 39.2953 32.2291 38.7702C31.512 38.2964 30.8973 37.8098 30.8461 37.6945C30.8077 37.5793 30.7692 36.0425 30.7692 34.2881V31.0994H31.7937H32.8182V31.9062V32.7258L33.6762 32.4313C35.8148 31.7013 37.5564 32.3288 39.8871 34.6979C41.1421 35.9657 42.8453 38.1683 43.3063 39.1032C44.049 40.6015 44.0874 41.0112 44.0874 48.157C44.0874 54.1502 44.0746 54.7008 43.8441 55.418C43.0502 57.9919 40.156 59.4134 37.7997 58.4017C37.0698 58.0816 32.7542 54.7264 31.9986 53.8812C30.9101 52.6647 30.8461 52.3445 30.7949 47.9137L30.7564 44.0591L30.2442 43.7261L29.7448 43.3932L29.2453 43.7261L28.7331 44.0591L28.6947 47.9137C28.6435 52.3445 28.5794 52.6647 27.4909 53.8812C26.7354 54.7264 22.4198 58.0816 21.6898 58.4017C19.3335 59.4134 16.4522 57.9919 15.6454 55.418C15.4149 54.7008 15.4021 54.1758 15.4021 48.157C15.4021 41.0112 15.4405 40.6015 16.1833 39.1032C16.401 38.655 17.0669 37.6689 17.6688 36.9133C20.2556 33.6606 22.3301 32.1239 24.1486 32.1239C24.8401 32.1239 25.903 32.3672 26.3768 32.6233L26.6585 32.7642L26.697 25.2471C26.7482 17.8581 26.7482 17.7044 27.0427 16.7568C27.8879 13.9395 29.5655 12.3131 32.1267 11.8137C32.8438 11.6856 34.1628 11.6344 37.1978 11.6344H41.2957L41.0396 11.2118C40.5786 10.4562 40.1176 8.93233 39.9895 7.76699C39.8487 6.30711 39.4773 5.51314 38.4528 4.42463C37.5692 3.47699 36.3783 2.78547 35.1873 2.54216C34.7007 2.43971 33.2792 2.4141 30.8589 2.43971C27.3629 2.49093 27.222 2.50374 26.4024 2.81108C25.1859 3.2849 24.5071 3.7075 23.6747 4.53989C22.8424 5.37227 22.407 6.05099 21.9459 7.26756C21.6514 8.06152 21.6258 8.27922 21.5746 11.1478C21.5233 14.5157 21.613 15.1304 22.3301 16.2573C22.7655 16.9361 24.0333 18.191 24.8913 18.7801C25.2243 18.9978 25.5188 19.2795 25.57 19.382C25.6084 19.4972 25.6469 21.5718 25.6469 23.9921C25.6469 27.9876 25.6213 28.4102 25.4164 28.6535C25.2499 28.8584 23.4827 29.4347 18.0914 31.0482C14.1855 32.2136 10.6895 33.3277 10.3437 33.507C9.46014 33.9808 8.24357 35.2358 7.79536 36.145C7.2319 37.3359 6.3611 41.4723 4.26092 53.036C3.21083 58.8628 2.34002 63.6906 2.34002 63.7546C2.34002 63.8315 3.88955 63.8827 6.41232 63.8827H10.4718L11.4066 59.1701L12.3415 54.4703L12.3287 49.4376V44.4176H13.3531H14.3776V49.4504V54.4703L16.3754 59.4518C17.4639 62.1923 18.3219 64.4718 18.2578 64.5358C18.1426 64.6382 16.529 65.3041 16.4906 65.2529C16.4778 65.2401 15.8759 63.729 15.146 61.8978C14.416 60.0665 13.7885 58.517 13.7373 58.4658C13.6861 58.4145 13.3403 59.9385 12.9562 61.8593C12.3927 64.7151 12.2134 65.4066 11.9829 65.6371L11.7012 65.9316H6.18181H0.662445L0.355103 65.6115C0.175819 65.445 0.0349503 65.2017 0.0349503 65.0736C0.0349503 64.5358 4.20969 41.9333 4.78596 39.2953C5.49029 36.1322 5.95131 34.9284 6.93736 33.699C7.57766 32.9051 8.80703 31.9446 9.75467 31.5092C10.126 31.3428 12.9305 30.4463 15.9656 29.5371C19.0006 28.6407 21.9587 27.7443 22.535 27.565L23.5979 27.2448V23.8129V20.3937L22.7655 19.7277C21.152 18.4343 20.0763 16.8208 19.6793 15.1304C19.5128 14.4261 19.4872 13.6577 19.5256 11.0581C19.5768 8.0103 19.6025 7.8054 19.9226 6.83215C20.4092 5.35947 21.0879 4.28377 22.2533 3.11842C23.4186 1.95308 24.4943 1.27437 25.967 0.787743C26.9787 0.454788 27.0427 0.441978 30.9613 0.403564C34.4702 0.377953 35.0464 0.403564 35.866 0.608459ZM33.7786 34.6083C33.0359 35.0565 32.8182 35.3894 32.8182 36.1066C32.8182 36.6956 32.8182 36.7084 33.6506 37.2463C34.7647 37.9762 35.4562 38.783 35.7123 39.641L35.9044 40.3197H37.4412H38.9651V41.3442V42.3687H37.8125H36.6728L37.5948 43.9054L38.5169 45.4421H39.759H41.014V46.4666V47.4911H39.9895H38.9651V48.8613V50.2443L39.8615 51.589C40.3481 52.3317 40.7579 52.972 40.7579 53.0232C40.7579 53.1129 39.298 54.1502 39.17 54.1502C39.1315 54.1502 38.8114 53.7148 38.44 53.1769L37.7869 52.2037L37.2234 52.7543L36.66 53.305L35.93 52.575L35.1873 51.8451L36.0581 50.9743L36.9161 50.1035V48.4259V46.7355L35.93 45.0963C35.3922 44.1999 34.944 43.4316 34.9184 43.406C34.9056 43.3932 34.6751 43.5212 34.4318 43.7133C34.1756 43.9054 33.7274 44.1359 33.4329 44.2255L32.8822 44.3792V47.9521V51.5249L33.228 52.1268C33.4969 52.575 34.1372 53.1513 35.8532 54.4831C38.376 56.4424 38.8114 56.7114 39.4773 56.7114C40.4762 56.6985 41.6159 55.8149 41.9104 54.8289C42.0129 54.4959 42.0385 52.3061 42.0129 47.7472C41.9745 41.1905 41.9745 41.1521 41.6799 40.4222C41.078 38.9367 37.979 35.4022 36.5319 34.5699C35.9044 34.1985 35.738 34.1601 35.0849 34.2113C34.611 34.2497 34.15 34.3906 33.7786 34.6083ZM22.9576 34.5699C21.5362 35.3766 18.4243 38.9239 17.7968 40.4478C17.5151 41.1393 17.5151 41.2546 17.4767 47.7088C17.4511 52.3445 17.4895 54.4319 17.5919 54.8161C17.8608 55.8405 19.039 56.7114 20.1403 56.7114C20.6782 56.7114 21.2672 56.3272 23.7004 54.4319C25.7365 52.8311 26.0567 52.5238 26.3384 51.9347L26.6713 51.256L26.6457 47.824L26.6073 44.3792L26.0567 44.2255C25.7621 44.1359 25.3139 43.9054 25.0578 43.7133C24.8145 43.5212 24.584 43.3932 24.5712 43.406C24.5456 43.4316 24.0973 44.1999 23.5595 45.0963L22.5734 46.7355V48.4259V50.1035L23.4314 50.9743L24.3022 51.8451L23.5595 52.575L22.8296 53.305L22.2661 52.7543L21.7026 52.2037L21.0495 53.1769C20.6782 53.7148 20.358 54.1502 20.3196 54.1502C20.1915 54.1502 18.7316 53.1129 18.7316 53.0232C18.7316 52.972 19.1414 52.3317 19.6281 51.589L20.5245 50.2443V48.8613V47.4911H19.5H18.4755V46.4666V45.4421H19.7305H20.9727L21.8947 43.9054L22.8167 42.3687H21.677H20.5245V41.3442V40.3197H22.0484H23.5851L23.79 39.6026C24.0333 38.7446 24.6864 38.0019 25.839 37.2463C26.6713 36.7084 26.6713 36.7084 26.6713 36.0938C26.6713 35.3382 26.3896 34.954 25.4932 34.5058C24.5712 34.0448 23.854 34.0576 22.9576 34.5699Z" fill="#080808"/>
<path d="M57.3673 8.03582C57.2008 11.3654 56.0995 14.2723 54.2298 16.27C52.1296 18.4983 49.594 19.5868 46.0468 19.7917C44.779 19.8685 44.7406 19.8557 44.4204 19.5356C43.8826 18.9977 43.9722 18.652 45.176 16.8463C45.7779 15.9499 46.3029 15.22 46.3413 15.22C46.4694 15.22 47.9293 16.2572 47.9293 16.3469C47.9293 16.3981 47.7628 16.6926 47.5451 17.0128C47.3402 17.3201 47.1993 17.6019 47.2249 17.6275C47.3274 17.7299 49.4276 17.128 50.1703 16.7695C53.2181 15.3352 55.0622 12.1978 55.3183 8.0102C55.4079 6.44788 55.3055 6.56313 56.6885 6.47349L57.4441 6.42226L57.3673 8.03582Z" fill="#080808"/>
<path d="M45.496 20.9443C46.5717 21.0596 48.2109 21.4053 49.4018 21.7639C54.2169 23.2366 57.2006 26.1435 58.1099 30.2542C58.2251 30.7921 58.3532 31.2275 58.3788 31.2275C58.4172 31.2275 58.7374 31.0226 59.1087 30.7793C59.4673 30.536 59.8131 30.3311 59.8643 30.3311C59.9539 30.3311 60.9912 31.7909 60.9912 31.919C60.9912 32.0983 57.7001 34.1729 57.4183 34.1729C57.1494 34.1729 53.9095 32.2392 53.7558 31.9958C53.679 31.8806 54.6651 30.3311 54.8059 30.3311C54.87 30.3311 55.1645 30.5103 55.4846 30.7152C56.0097 31.061 56.0609 31.0738 56.0993 30.8561C56.1249 30.728 56.0225 30.2542 55.8688 29.806C54.6267 26.0795 50.8489 23.6079 45.4832 23.0061L44.0873 22.8524V21.8535V20.8547L44.5612 20.8803C44.8301 20.8803 45.2527 20.9187 45.496 20.9443Z" fill="#080808"/>
<path d="M32.8181 28.0261V29.0505H31.7936H30.7692V28.0261V27.0016H31.7936H32.8181V28.0261Z" fill="#080808"/>
</svg>
