<svg width="138" height="120" viewBox="0 0 138 120" fill="none" xmlns="http://www.w3.org/2000/svg">
<g clip-path="url(#clip0_276_801)">
<path d="M62.8567 103.433C66.6704 106.278 70.9299 108.471 75.4617 109.921C84.9014 112.906 95.385 112.446 105.902 107.968C106.612 107.654 107.415 107.621 108.147 107.878L121.616 112.368L120.101 101.424C120.029 100.894 120.095 100.355 120.291 99.8573C120.488 99.36 120.809 98.9216 121.224 98.5841C123.987 96.4451 126.379 93.8666 128.306 90.9515C131.05 86.8368 132.144 81.8396 131.37 76.9547C130.385 71.7714 128.064 66.9351 124.636 62.9242C123.962 62.0712 123.233 61.2406 122.481 60.4212C123.15 57.9968 123.626 55.5236 123.906 53.0243C125.921 54.8825 127.796 56.8858 129.518 59.0181C133.618 63.8917 136.38 69.748 137.533 76.0119C138.558 82.377 137.165 88.8955 133.626 94.2852C131.675 97.2786 129.296 99.9709 126.566 102.277L128.373 116.195C128.483 116.732 128.45 117.288 128.277 117.808C128.104 118.328 127.798 118.794 127.389 119.159C126.98 119.523 126.483 119.774 125.946 119.887C125.41 119.999 124.854 119.968 124.333 119.798L107.227 114.186C96.5546 118.705 84.6301 119.313 73.5535 115.903C65.9007 113.424 58.9508 109.152 53.2823 103.444C54.0119 103.444 54.7751 103.512 55.5945 103.545C58.0414 103.613 60.4659 103.545 62.8455 103.433H62.8567ZM80.9392 39.5326C82.3582 39.5303 83.746 39.9491 84.927 40.7359C86.108 41.5226 87.029 42.642 87.5736 43.9524C88.1182 45.2628 88.2618 46.7053 87.9864 48.0973C87.7109 49.4894 87.0287 50.7684 86.026 51.7726C85.0234 52.7768 83.7454 53.461 82.3538 53.7387C80.9622 54.0164 79.5195 53.875 78.2083 53.3324C76.897 52.7899 75.7762 51.8706 74.9876 50.6909C74.199 49.5112 73.778 48.124 73.778 46.705C73.778 44.8047 74.5322 42.982 75.8748 41.6373C77.2175 40.2925 79.0389 39.5355 80.9392 39.5326ZM33.5947 39.5326C35.0137 39.5303 36.4016 39.9491 37.5825 40.7359C38.7635 41.5226 39.6845 42.642 40.2291 43.9524C40.7737 45.2628 40.9173 46.7053 40.6419 48.0973C40.3664 49.4894 39.6842 50.7684 38.6815 51.7726C37.6789 52.7768 36.4009 53.461 35.0093 53.7387C33.6177 54.0164 32.175 53.875 30.8638 53.3324C29.5525 52.7899 28.4317 51.8706 27.6431 50.6909C26.8545 49.5112 26.4335 48.124 26.4335 46.705C26.4335 44.8047 27.1877 42.982 28.5303 41.6373C29.873 40.2925 31.6944 39.5355 33.5947 39.5326ZM57.2669 39.5326C58.686 39.5303 60.0738 39.9491 61.2548 40.7359C62.4357 41.5226 63.3568 42.642 63.9014 43.9524C64.4459 45.2628 64.5896 46.7053 64.3141 48.0973C64.0386 49.4894 63.3564 50.7684 62.3538 51.7726C61.3512 52.7768 60.0732 53.461 58.6816 53.7387C57.29 54.0164 55.8472 53.875 54.536 53.3324C53.2248 52.7899 52.1039 51.8706 51.3153 50.6909C50.5267 49.5112 50.1058 48.124 50.1058 46.705C50.1028 44.8076 50.8529 42.9867 52.1913 41.6419C53.5298 40.2972 55.3472 39.5385 57.2445 39.5326H57.2669ZM58.7037 0.000247737H58.7598C74.4066 0.51657 88.4371 6.08387 98.4829 14.693C108.753 23.4929 114.904 35.4693 114.489 48.557C114.085 61.6446 107.215 73.2506 96.4176 81.4445C85.8555 89.4587 71.477 94.1954 55.8302 93.7913C51.5871 93.668 47.3641 93.157 43.214 92.2648C39.6016 91.4899 36.0609 90.4123 32.6294 89.0434L7.00412 99.1453L15.5908 78.7282C10.9654 74.7313 7.15428 69.8798 4.36638 64.4395C1.31407 58.5087 -0.187971 51.902 9.42517e-05 45.2346C0.415397 32.1357 7.28473 20.5184 18.0826 12.3471C28.656 4.29919 43.0232 -0.426279 58.6812 0.000247737H58.7037ZM58.5129 7.12774H58.4567C44.4711 6.73488 31.709 10.9328 22.3815 17.9593C13.2786 24.9184 7.47554 34.6051 7.15003 45.4254C7.00331 50.9027 8.23449 56.3292 10.7306 61.2069C13.4928 66.526 17.3759 71.1827 22.1121 74.8557L24.2336 76.5506L20.1367 86.2822L32.7192 81.3322L34.0661 81.9047C37.4939 83.3633 41.0532 84.4909 44.6956 85.272C48.4332 86.0705 52.2347 86.5326 56.0547 86.6526C70.0515 87.0567 82.8249 82.8812 92.1524 75.8098C101.255 68.8956 107.058 59.2089 107.384 48.3886C107.754 37.5346 102.501 27.5449 93.836 20.1144C84.9575 12.5042 72.5097 7.58794 58.5353 7.16141L58.5129 7.12774Z" fill="white"/>
</g>
<defs>
<clipPath id="clip0_276_801">
<rect width="137.925" height="120" fill="white"/>
</clipPath>
</defs>
</svg>
