<svg width="51" height="51" viewBox="0 0 51 51" fill="none" xmlns="http://www.w3.org/2000/svg">
<circle cx="25.4998" cy="25.5" r="25.5" fill="white"/>
<path d="M25.7727 22.2623C29.6251 22.2623 32.7481 19.1393 32.7481 15.2869C32.7481 11.4345 29.6251 8.31152 25.7727 8.31152C21.9203 8.31152 18.7974 11.4345 18.7974 15.2869C18.7974 19.1393 21.9203 22.2623 25.7727 22.2623Z" fill="#080808"/>
<path d="M35.1838 41.4446H16.3613C14.4963 41.4446 12.9844 39.9327 12.9844 38.0676V37.2505C12.9844 30.5409 18.4236 25.1017 25.1331 25.1017H26.412C33.1216 25.1017 38.5608 30.5409 38.5608 37.2505V38.0676C38.5608 39.9327 37.0488 41.4446 35.1838 41.4446Z" fill="#080808"/>
</svg>
