<svg width="51" height="51" viewBox="0 0 51 51" fill="none" xmlns="http://www.w3.org/2000/svg">
<g clip-path="url(#clip0_1036_47)">
<path d="M25.5 51C39.5833 51 51 39.5833 51 25.5C51 11.4167 39.5833 0 25.5 0C11.4167 0 0 11.4167 0 25.5C0 39.5833 11.4167 51 25.5 51Z" fill="white"/>
<path d="M25.7727 22.2623C29.6251 22.2623 32.7481 19.1393 32.7481 15.2869C32.7481 11.4345 29.6251 8.31152 25.7727 8.31152C21.9203 8.31152 18.7974 11.4345 18.7974 15.2869C18.7974 19.1393 21.9203 22.2623 25.7727 22.2623Z" fill="#080808"/>
<path d="M35.1838 41.4446H16.3613C14.4963 41.4446 12.9844 39.9327 12.9844 38.0676V37.2505C12.9844 30.5409 18.4236 25.1017 25.1331 25.1017H26.412C33.1216 25.1017 38.5608 30.5409 38.5608 37.2505V38.0676C38.5608 39.9327 37.0488 41.4446 35.1838 41.4446Z" fill="#080808"/>
<g clip-path="url(#clip1_1036_47)">
<path fill-rule="evenodd" clip-rule="evenodd" d="M33.8833 11.7484C34.3997 11.8941 34.7778 12.3334 34.7778 12.8483V12.8487C34.7778 13.4813 34.2066 14 33.5101 14H18.2677C17.5712 14 17 13.4819 17 12.8487V12.8483C17 12.3331 17.3781 11.8938 17.8948 11.7484C17.9486 8.43474 20.4458 5.70067 23.8233 4.8959L23.8108 4.62565C23.7948 4.28255 24.1215 4 24.4993 4H27.2785C27.6566 4 27.9833 4.28192 27.9674 4.62565L27.9549 4.89622C31.3319 5.70067 33.8292 8.43474 33.8833 11.7484Z" fill="#C82333"/>
<path fill-rule="evenodd" clip-rule="evenodd" d="M27.9262 5.52245C28.7161 5.72333 29.4602 6.03016 30.1279 6.42435L29.0401 11.6377H27.6439L27.9262 5.52245ZM24.1345 11.6377H22.5196L21.4512 6.35875C22.1817 5.94281 22.9845 5.63093 23.8487 5.44519L24.1345 11.6377Z" fill="#E8AE00"/>
</g>
</g>
<defs>
<clipPath id="clip0_1036_47">
<rect width="51" height="51" fill="white"/>
</clipPath>
<clipPath id="clip1_1036_47">
<rect width="17.7778" height="10" fill="white" transform="translate(17 4)"/>
</clipPath>
</defs>
</svg>
