<svg width="120" height="120" viewBox="0 0 120 120" fill="none" xmlns="http://www.w3.org/2000/svg">
<g clip-path="url(#clip0_276_822)">
<path d="M114.024 0.163986C94.5939 1.12492 91.2658 1.33586 90.7736 1.64055C90.4923 1.82805 83.4611 9.58586 75.1876 18.914C66.8907 28.2187 60.0704 35.8359 60.0001 35.8359C59.9298 35.8359 53.1095 28.2421 44.8126 18.9609C36.5392 9.70305 29.5079 1.94524 29.2032 1.75774C28.7814 1.47649 26.3439 1.28899 17.2032 0.820236C2.81261 0.0936737 2.03918 0.0936737 1.14855 0.703049C0.796988 0.984299 0.398551 1.52336 0.281363 1.94524C0.140738 2.41399 0.304801 7.42961 0.726676 15.6327C1.26574 26.6015 1.4298 28.6874 1.78136 29.2265C1.9923 29.6015 10.0548 36.9374 19.7111 45.5859C29.3673 54.2109 37.2189 61.3593 37.1954 61.4296C37.172 61.5234 35.2032 63.7265 32.8595 66.3281L28.547 71.039L27.3048 69.8671C24.7267 67.4296 24.0704 67.5468 20.2032 71.3202C16.8282 74.6249 15.9376 75.7499 15.9376 76.6874C15.9376 77.7656 16.2657 78.2109 19.2892 81.2577L22.1251 84.1406L11.9298 94.3827C0.820426 105.562 0.703238 105.726 0.187613 108.844C-0.328012 111.891 0.656363 114.82 2.95324 117.117C5.08605 119.273 8.20324 120.305 11.0392 119.789C14.2032 119.25 14.2267 119.226 25.3595 108.094L35.6017 97.8749L38.7189 100.922C40.5704 102.75 42.0704 104.039 42.422 104.109C43.7111 104.344 44.3907 103.875 48.0001 100.242C51.3282 96.8906 51.5626 96.5859 51.5626 95.7656C51.5626 94.664 51.3048 94.1484 49.9923 92.7421C49.4298 92.1327 48.9845 91.5468 49.0314 91.4296C49.0782 91.3124 51.5626 89.039 54.5626 86.3671L60.0236 81.4921L60.7736 82.1952C61.1954 82.5702 63.5861 84.7265 66.0939 86.9531C68.6017 89.1796 70.7579 91.0781 70.8751 91.1952C70.9923 91.289 70.5236 91.9921 69.797 92.789C68.4142 94.2656 68.0626 95.2031 68.4611 96.2812C68.7423 97.0312 74.8126 103.242 75.797 103.758C77.1564 104.461 77.8829 104.062 81.2111 100.758L84.2579 97.7343L94.2189 107.719C99.7033 113.18 104.672 117.984 105.258 118.359C109.242 120.937 114.867 119.976 117.867 116.203C120.235 113.273 120.586 109.172 118.805 105.656C118.477 105 114.75 101.086 108.094 94.4062L97.8751 84.1406L100.969 80.9999C103.805 78.1171 104.063 77.789 104.063 76.9921C104.063 76.5234 103.945 75.914 103.805 75.6327C103.43 74.9062 97.5001 68.9296 96.7501 68.5312C95.3908 67.8281 94.5001 68.1327 92.5548 70.0077L91.4767 71.039L87.1642 66.2109C84.797 63.539 82.8282 61.289 82.8048 61.2187C82.7814 61.1249 90.6798 53.9765 100.36 45.3515C110.016 36.703 118.078 29.3671 118.266 29.0155C118.5 28.5468 118.758 25.3593 119.18 16.9452C119.883 3.18742 119.906 1.9218 119.391 1.19524C118.875 0.492111 117.656 -0.0235138 116.555 0.0467987C116.063 0.0702362 114.938 0.140549 114.024 0.163986ZM18.3517 6.07024C26.4611 6.46867 26.5079 6.46867 27.047 7.03117C27.3517 7.3593 33.8439 14.6249 41.4845 23.203C49.1251 31.7812 55.5939 39.0234 55.8517 39.3046L56.3204 39.8202L53.297 43.2187L50.2736 46.5937L44.5314 40.8984C40.2189 36.6093 38.6017 35.1562 38.0626 35.039C35.8829 34.5937 34.1017 37.1249 35.3439 38.9062C35.5548 39.2343 38.2501 41.9765 41.3204 44.9999L46.8986 50.5077L43.9454 53.8359C42.3048 55.6874 40.8986 57.1874 40.8282 57.1874C40.4767 57.1874 6.44543 26.6484 6.39855 26.2968C6.3048 25.7343 5.39074 7.24211 5.39074 6.2343V5.39055L7.8048 5.53117C9.1173 5.60149 13.8517 5.8593 18.3517 6.07024ZM114.516 6.72649C114.422 7.47649 114.211 11.7187 114.024 16.1718C113.813 20.6249 113.602 24.8202 113.531 25.4765L113.414 26.7187L94.9689 43.1952C69.2579 66.164 45.2579 87.4218 45.047 87.4218C44.9532 87.4218 43.8751 86.414 42.6564 85.1952L40.4298 82.9687L62.5079 60.8671C74.6251 48.7265 84.6798 38.5546 84.8204 38.2734C85.3595 37.2187 85.0548 35.953 84.047 35.1093C83.4845 34.6405 82.0314 34.5468 81.2579 34.9452C80.9767 35.0859 70.8282 45.1171 58.7111 57.2109L36.6798 79.2187L34.3829 76.9218L32.0861 74.6249L34.4064 72.0702C40.5001 65.2499 93.3048 6.56242 93.3517 6.53899C93.3986 6.51555 110.836 5.57805 113.977 5.41399L114.633 5.39055L114.516 6.72649ZM84.0001 70.6406L87.7267 74.789L85.4064 77.1327L83.0861 79.4531L78.2345 74.6015C75.5392 71.9296 73.3829 69.6562 73.4064 69.5624C73.4532 69.4687 74.6486 68.3202 76.0548 67.0546L78.6329 64.7109L79.4532 65.6015C79.8986 66.0937 81.9611 68.3437 84.0001 70.6406ZM74.4845 78.1171L79.4532 83.0859L77.1329 85.4062L74.8126 87.7265L69.3751 82.8515C66.3986 80.1796 64.0079 77.8827 64.0314 77.789C64.1017 77.5546 69.1642 73.1718 69.3751 73.1484C69.4454 73.1249 71.7423 75.3749 74.4845 78.1171ZM34.9923 85.0312L45.4923 95.5312L44.2736 96.539L43.0782 97.5702L32.672 87.164L22.2657 76.7577L23.3673 75.6562C23.9767 75.0234 24.4689 74.5312 24.4923 74.5312C24.4923 74.5312 29.2267 79.2656 34.9923 85.0312ZM87.2579 87.2109L76.7579 97.664L75.6329 96.5859L74.5314 95.5077L85.0079 85.0312L95.5079 74.5312L96.6329 75.6562L97.7579 76.7577L87.2579 87.2109ZM29.9298 96.1406C28.7345 97.2656 27.6564 98.1796 27.5392 98.2031C27.3986 98.2031 25.9454 96.8437 24.3048 95.2031L21.2814 92.1796L23.6017 90.0468L25.8986 87.914L28.9923 90.9843L32.0861 94.0781L29.9298 96.1406ZM95.4376 95.4374L92.3439 98.5546L90.0704 96.2577L87.7736 93.9609L90.9376 90.9374L94.1017 87.914L96.3283 90.1171L98.5548 92.3437L95.4376 95.4374ZM103.664 103.641L100.547 106.758L98.2033 104.414L95.8595 102.07L98.9533 98.9765L102.07 95.8593L104.414 98.2031L106.758 100.547L103.664 103.641ZM20.9767 99.1406L24.0001 102.164L21.6564 104.391C20.3907 105.609 19.2189 106.617 19.1017 106.641C18.9611 106.641 17.5548 105.328 15.9376 103.711L13.0079 100.781L15.3517 98.4374C16.6407 97.1484 17.7423 96.0937 17.8126 96.0937C17.8829 96.0937 19.2892 97.4531 20.9767 99.1406ZM13.7814 112.148C11.9064 113.93 11.1095 114.375 9.77355 114.422C7.45324 114.469 5.62511 112.594 5.62511 110.18C5.62511 108.609 6.04699 107.789 7.8048 105.984L9.25793 104.531L12.3048 107.578L15.3517 110.648L13.7814 112.148ZM112.594 106.43C114.117 108.094 114.61 109.055 114.61 110.484C114.61 111.375 113.766 113.109 113.25 113.297C113.039 113.391 112.477 113.672 112.031 113.906C110.977 114.516 109.242 114.516 108.094 113.93C107.625 113.672 106.594 112.828 105.82 112.031L104.414 110.578L107.461 107.672C109.149 106.078 110.625 104.766 110.789 104.766C110.93 104.766 111.75 105.516 112.594 106.43Z" fill="white"/>
</g>
<defs>
<clipPath id="clip0_276_822">
<rect width="120" height="120" fill="white"/>
</clipPath>
</defs>
</svg>
